<svg xmlns="http://www.w3.org/2000/svg" version="1.1" xmlns:xlink="http://www.w3.org/1999/xlink" xmlns:svgjs="http://svgjs.dev/svgjs" width="2000" height="459" viewBox="0 0 2000 459"><g transform="matrix(1,0,0,1,-1.2120983725026235,1.0928154947823998)"><svg viewBox="0 0 396 91" data-background-color="#ffffff" preserveAspectRatio="xMidYMid meet" height="459" width="2000" xmlns="http://www.w3.org/2000/svg" xmlns:xlink="http://www.w3.org/1999/xlink"><g id="tight-bounds" transform="matrix(1,0,0,1,0.23999550742752263,-0.2166584096409565)"><svg viewBox="0 0 395.52 91.43331681928193" height="91.43331681928193" width="395.52"><g><svg viewBox="0 0 702.6273936359039 162.428077185017" height="91.43331681928193" width="395.52"><g><rect width="14.575056344597503" height="162.428077185017" x="254.37773953058007" y="0" fill="#ffffff" opacity="1" stroke-width="0" stroke="transparent" fill-opacity="1" class="rect-o-0" data-fill-palette-color="primary" rx="1%" id="o-0" data-palette-color="#000000"></rect></g><g transform="matrix(1,0,0,1,307.10739363590403,0.4040499432463065)"><svg viewBox="0 0 395.5199999999999 161.6199772985244" height="161.6199772985244" width="395.5199999999999"><g id="textblocktransform"><svg viewBox="0 0 395.5199999999999 161.6199772985244" height="161.6199772985244" width="395.5199999999999" id="textblock"><g><svg viewBox="0 0 395.5199999999999 161.6199772985244" height="161.6199772985244" width="395.5199999999999"><g transform="matrix(1,0,0,1,0,0)"><svg width="395.5199999999999" viewBox="2.6500000953674316 -35.5 88.08999633789062 36" height="161.6199772985244" data-palette-color="#000000"><path d="M3.9-26.35L3.9-26.35Q3.9-31.2 6.35-33.35 8.8-35.5 14.3-35.5L14.3-35.5Q18.15-35.5 20.5-33.5 22.85-31.5 23.9-27.4L23.9-27.4 19.25-23.9 16.8-23.9 22.2-27.95Q21.15-31.3 19.18-32.65 17.2-34 14.3-34L14.3-34Q12.3-34 10.93-33.75 9.55-33.5 8.18-32.77 6.8-32.05 6.1-30.45 5.4-28.85 5.4-26.35L5.4-26.35Q5.4-24.15 7.43-22.45 9.45-20.75 12.35-19.55 15.25-18.35 18.18-17.1 21.1-15.85 23.13-13.9 25.15-11.95 25.15-9.4L25.15-9.4Q25.15-4.4 22.68-1.95 20.2 0.5 14.2 0.5L14.2 0.5Q9.3 0.5 6.5-1.48 3.7-3.45 2.65-7.6L2.65-7.6 4.05-8.2Q5.05-4.15 7.48-2.58 9.9-1 14.2-1L14.2-1Q19-1 21.33-2.85 23.65-4.7 23.65-9.4L23.65-9.4Q23.65-11.6 21.63-13.3 19.6-15 16.68-16.2 13.75-17.4 10.85-18.65 7.95-19.9 5.93-21.85 3.9-23.8 3.9-26.35ZM32.8 0L32.8-29 34.3-29 34.3 0 32.8 0ZM45.3 0L43.8 0 43.8-29 45.3-29 45.3 0ZM64.45 0L62.3 0 46.9-15.3 60.7-29 62.84-29 49.05-15.3 64.45 0ZM72.19 0L72.19-1.5 88.49-1.5 78.24-25.65 67.34 0 65.74 0 78.24-29.5 90.74 0 72.19 0Z" opacity="1" transform="matrix(1,0,0,1,0,0)" fill="#ffffff" class="undefined-text-0" data-fill-palette-color="primary" id="text-0"></path></svg></g></svg></g></svg></g></svg></g><g transform="matrix(1,0,0,1,0,0.4040499432463065)"><svg viewBox="0 0 216.2231417698536 161.6199772985244" height="161.6199772985244" width="216.2231417698536"><g><svg xmlns="http://www.w3.org/2000/svg" xmlns:xlink="http://www.w3.org/1999/xlink" version="1.1" x="0" y="0" viewBox="1.100000023841858 13.400001525878906 97.80000305175781 73.1024169921875" enable-background="new 0 0 100 100" xml:space="preserve" height="161.6199772985244" width="216.2231417698536" class="icon-icon-0" data-fill-palette-color="accent" id="icon-0"><path d="M1.1 79.9v-4.1h5.4 0.3V33.2c0-3.4 2.7-6.1 6.1-6.1h23.7c-0.5 2-0.8 4.1-0.8 6.3 0 0.7 0 1.3 0.1 2H15v40.4h21.2v0.4c0 1.3 1 2.3 2.3 2.3h11.6c1.3 0 2.3-1 2.3-2.3v-0.4h21.2V58.5H79c1 0 2-0.1 3-0.2v17.4h0.3 5.4v4.1c0 3.7-3 6.7-6.7 6.7h-6.4H14.2 7.8C4.1 86.6 1.1 83.6 1.1 79.9zM40.8 33.4c0-11 9-20 20-20h18.1c11 0 20 9 20 20 0 11-9 20-20 20H65.4l-9.2 9.2c-0.6 0.6-1.7 0.2-1.7-0.7v-9.5C46.5 49.7 40.8 42.3 40.8 33.4zM52.7 33.5c0 1.1 0.2 2.1 0.6 3.1 0.4 1 1 1.9 1.8 2.7 0.8 0.8 1.7 1.4 2.7 1.8 1 0.4 2 0.6 3.1 0.6 1.1 0 2.1-0.2 3.1-0.6 1-0.4 1.9-1 2.7-1.8l0.6-0.6-2.6-2.6-0.6 0.6c-0.9 0.9-2 1.3-3.2 1.3-1.2 0-2.3-0.5-3.2-1.3-0.9-0.9-1.3-2-1.3-3.2s0.5-2.3 1.3-3.2c0.9-0.9 2-1.3 3.2-1.3 1.2 0 2.3 0.5 3.2 1.3l3.2 3.2 5.8 5.8c0.8 0.8 1.7 1.4 2.7 1.8 1 0.4 2 0.6 3.1 0.6 1.1 0 2.1-0.2 3.1-0.6 1-0.4 1.9-1 2.7-1.8 0.8-0.8 1.4-1.7 1.8-2.7 0.4-1 0.6-2 0.6-3.1 0-1.1-0.2-2.1-0.6-3.1-0.4-1-1-1.9-1.8-2.7-0.8-0.8-1.7-1.4-2.7-1.8-1-0.4-2-0.6-3.1-0.6-1.1 0-2.1 0.2-3.1 0.6-1 0.4-1.9 1-2.7 1.8l-0.7 0.7L75 31l0.7-0.7c0.9-0.9 2-1.3 3.2-1.3 1.2 0 2.3 0.5 3.2 1.3 0.9 0.9 1.3 2 1.3 3.2s-0.5 2.3-1.3 3.2c-0.9 0.9-2 1.3-3.2 1.3-1.2 0-2.3-0.5-3.2-1.3l-1.3-1.3-7.7-7.7c-0.8-0.8-1.7-1.4-2.7-1.8-1-0.4-2-0.6-3.1-0.6-1.1 0-2.1 0.2-3.1 0.6-1 0.4-1.9 1-2.7 1.8-0.8 0.8-1.4 1.7-1.8 2.7C52.9 31.4 52.7 32.4 52.7 33.5z" fill="#ffffff" data-fill-palette-color="accent"></path></svg></g></svg></g></svg></g><defs></defs></svg><rect width="395.52" height="91.43331681928193" fill="none" stroke="none" visibility="hidden"></rect></g></svg></g></svg>